<svg version="1.1" viewBox="0.0 0.0 1080.0 1080.0" fill="none" stroke="none" stroke-linecap="square" stroke-miterlimit="10" xmlns:xlink="http://www.w3.org/1999/xlink" xmlns="http://www.w3.org/2000/svg"><clipPath id="p.0"><path d="m0 0l1080.0 0l0 1080.0l-1080.0 0l0 -1080.0z" clip-rule="nonzero"/></clipPath><g clip-path="url(#p.0)"><path fill="#000000" fill-opacity="0.0" d="m0 0l1080.0 0l0 1080.0l-1080.0 0z" fill-rule="evenodd"/><path fill="#f2f2f2" d="m452.55905 339.378l0 0c0 -107.404175 87.06827 -194.47244 194.47244 -194.47244l0 0c51.57727 0 101.042114 20.488998 137.51276 56.959656c36.470703 36.470657 56.959656 85.935486 56.959656 137.51279l0 0c0 107.404144 -87.06824 194.47241 -194.47241 194.47241l0 0c-107.404175 0 -194.47244 -87.06827 -194.47244 -194.47241z" fill-rule="evenodd"/><path fill="#4bee8f" d="m259.8583 581.5671l280.1417 -484.378l280.14178 484.378z" fill-rule="evenodd"/><path fill="#74b6b5" d="m370.21637 581.533l224.83466 -388.9449l224.83466 388.9449z" fill-rule="evenodd"/><path fill="#676087" d="m259.8583 577.854l280.1417 484.5039l280.14178 -484.5039z" fill-rule="evenodd"/></g></svg>