<svg version="1.1" viewBox="0.0 0.0 618.6430446194225 618.6430446194225" fill="none" stroke="none" stroke-linecap="square" stroke-miterlimit="10" xmlns:xlink="http://www.w3.org/1999/xlink" xmlns="http://www.w3.org/2000/svg"><clipPath id="p.0"><path d="m0 0l618.64307 0l0 618.64307l-618.64307 0l0 -618.64307z" clip-rule="nonzero"/></clipPath><g clip-path="url(#p.0)"><path fill="#000000" fill-opacity="0.0" d="m0 0l618.64307 0l0 618.64307l-618.64307 0z" fill-rule="evenodd"/><path fill="#f2f2f2" d="m151.60367 172.92651l0 0c0 -87.10444 70.61211 -157.71654 157.71655 -157.71654l0 0c41.82901 0 81.944824 16.616516 111.52243 46.194103c29.577576 29.57759 46.19409 69.69341 46.19409 111.52244l0 0c0 87.10443 -70.61209 157.71652 -157.71652 157.71652l0 0c-87.10445 0 -157.71655 -70.61209 -157.71655 -157.71652z" fill-rule="evenodd"/><path fill="#4bee8f" d="m151.60385 332.72177l157.71655 -272.7244l157.71652 272.7244z" fill-rule="evenodd"/><path fill="#74b6b5" d="m213.74016 332.7034l126.598434 -218.99211l126.59842 218.99211z" fill-rule="evenodd"/><path fill="#676087" d="m151.60385 330.64304l157.71655 272.78738l157.71652 -272.78738z" fill-rule="evenodd"/></g></svg>