<svg version="1.1" viewBox="0.0 0.0 994.6272965879265 745.9685039370079" fill="none" stroke="none" stroke-linecap="square" stroke-miterlimit="10" xmlns:xlink="http://www.w3.org/1999/xlink" xmlns="http://www.w3.org/2000/svg"><clipPath id="p.0"><path d="m0 0l994.6273 0l0 745.9685l-994.6273 0l0 -745.9685z" clip-rule="nonzero"/></clipPath><g clip-path="url(#p.0)"><path fill="#000000" fill-opacity="0.0" d="m0 0l994.6273 0l0 745.9685l-994.6273 0z" fill-rule="evenodd"/><path fill="#4bee8f" d="m7.5196853 642.0766l332.97638 -575.9055l332.97635 575.9055z" fill-rule="evenodd"/><path fill="#f2f2f2" d="m126.92843 642.08655l273.24408 -472.6614l273.2441 472.6614z" fill-rule="evenodd"/><path fill="#74b6b5" d="m233.70482 457.42514l166.50392 -288.0l166.50397 288.0z" fill-rule="evenodd"/><path fill="#000000" fill-opacity="0.0" d="m216.36482 445.6719l770.7402 0l0 208.1575l-770.7402 0z" fill-rule="evenodd"/><path fill="#74b6b5" d="m276.63046 548.5544q7.671875 0 14.484375 2.015625q6.828125 2.015625 11.8125 6.25q5.0 4.21875 7.96875 10.65625q2.984375 6.421875 2.984375 15.0625l0 9.796875q-7.6875 2.109375 -16.046875 2.984375q-8.34375 0.859375 -13.90625 0.859375l-25.53125 0q0 7.09375 2.015625 13.046875q2.015625 5.953125 5.84375 10.28125q3.84375 4.3125 9.59375 6.71875q5.765625 2.390625 13.0625 2.390625q4.8125 0 10.46875 -2.015625q5.671875 -2.015625 10.265625 -4.703125l2.3125 2.890625l-4.21875 9.21875q-8.640625 4.59375 -15.46875 6.421875q-6.8125 1.828125 -15.265625 1.828125q-20.53125 0 -32.062515 -11.515625q-11.515625 -11.53125 -11.515625 -33.03125q0 -8.453125 1.046875 -14.296875q1.0625 -5.859375 3.171875 -10.28125q3.265625 -6.53125 7.296875 -9.890625q4.03125 -3.359375 9.609375 -6.625q3.0625153 -1.90625 5.5625153 -3.34375q2.5 -1.453125 4.984375 -2.5q2.5 -1.0625 5.1875 -1.640625q2.6875 -0.578125 6.34375 -0.578125zm-19.390625 37.453125q0.765625 0 2.578125 0.09375q1.828125 0.09375 4.125 0.1875q2.3125 0.09375 4.90625 0.1875q2.59375 0.09375 4.703125 0.09375q3.265625 0 7.96875 -0.1875q4.703125 -0.1875 7.96875 -0.375l0 -0.78125q0 -5.375 -0.671875 -10.078125q-0.671875 -4.703125 -2.5 -8.25q-1.8125 -3.546875 -4.890625 -5.5625q-3.078125 -2.03125 -7.671875 -2.03125q-8.265625 0 -12.390625 6.4375q-4.125 6.4375 -4.125 20.265625zm106.93744 -36.296875l0 18.234375l8.453125 -9.203125q3.84375 -4.03125 7.390625 -7.109375q3.546875 -3.078125 7.78125 -3.078125q2.296875 0 4.5 0.203125q2.21875 0.1875 3.75 0.953125l-0.953125 24.765625l-4.609375 1.921875q-3.46875 -6.90625 -11.328125 -6.90625q-2.5 0 -5.1875 1.0625q-2.6875 1.046875 -5.1875 3.15625q-4.609375 4.03125 -4.609375 8.0625l0 37.25q0 8.453125 0.96875 10.171875q0.765625 1.34375 3.15625 2.015625q2.40625 0.671875 5.09375 0.875l7.484375 0.375l0 7.109375q-7.296875 -0.1875 -15.359375 -0.390625q-8.0625 -0.1875 -13.4375 -0.1875q-5.375 0 -12.484375 0.1875q-7.09375 0.203125 -12.46875 0.390625l0 -7.109375l6.515625 -0.375q4.609375 -0.203125 5.765625 -2.125q0.578125 -0.765625 0.953125 -2.875q0.390625 -2.109375 0.390625 -6.71875l0 -44.34375q0 -5.578125 -0.390625 -7.59375q-0.375 -2.015625 -1.34375 -2.96875q-0.375 -0.390625 -0.953125 -0.671875q-0.578125 -0.296875 -2.6875 -0.484375l-8.25 -0.578125l0 -6.90625q5.375 -0.765625 10.75 -1.53125q5.375 -0.78125 10.359375 -2.3125l14.015625 -4.421875l1.921875 1.15625zm91.01611 -1.15625q4.40625 0 8.71875 0.96875q4.328125 0.953125 9.515625 2.875l1.34375 2.5q-1.34375 6.140625 -2.109375 12.484375q-0.765625 6.328125 -1.734375 14.578125l-6.90625 0l-1.34375 -11.515625q-0.1875 -2.109375 -2.015625 -3.640625q-1.828125 -1.546875 -4.234375 -2.59375q-2.390625 -1.0625 -5.171875 -1.53125q-2.78125 -0.484375 -5.09375 -0.484375q-19.203125 0 -19.203125 27.0625q0 7.875 1.734375 14.984375q1.734375 7.109375 5.46875 12.578125q3.75 5.46875 9.703125 8.640625q5.953125 3.15625 14.203125 3.15625q4.03125 0 7.875 -0.953125q3.84375 -0.953125 7.875 -2.6875l1.71875 1.921875l-4.03125 8.828125q-11.515625 6.53125 -24.953125 6.53125q-19.96875 0 -31.6875 -11.421875q-11.703125 -11.421875 -11.703125 -34.46875q0 -9.21875 1.4375 -13.71875q1.4375 -4.515625 3.546875 -7.96875q2.6875 -4.046875 6.140625 -7.296875q3.46875 -3.265625 8.453125 -6.53125q1.34375 -0.765625 3.734375 -2.296875q2.40625 -1.546875 4.703125 -2.984375q2.3125 -1.4375 4.140625 -2.484375q1.828125 -1.0625 2.015625 -1.0625q3.265625 -1.734375 7.203125 -2.59375q3.9375 -0.875 10.65625 -0.875zm77.372955 0q7.671875 0 14.484375 2.015625q6.828125 2.015625 11.8125 6.25q5.0 4.21875 7.96875 10.65625q2.984375 6.421875 2.984375 15.0625l0 9.796875q-7.6875 2.109375 -16.046875 2.984375q-8.34375 0.859375 -13.90625 0.859375l-25.53125 0q0 7.09375 2.015625 13.046875q2.015625 5.953125 5.84375 10.28125q3.84375 4.3125 9.59375 6.71875q5.765625 2.390625 13.0625 2.390625q4.8125 0 10.46875 -2.015625q5.671875 -2.015625 10.265625 -4.703125l2.3125 2.890625l-4.21875 9.21875q-8.640625 4.59375 -15.46875 6.421875q-6.8125 1.828125 -15.265625 1.828125q-20.53125 0 -32.0625 -11.515625q-11.515625 -11.53125 -11.515625 -33.03125q0 -8.453125 1.046875 -14.296875q1.0625 -5.859375 3.171875 -10.28125q3.265625 -6.53125 7.296875 -9.890625q4.03125 -3.359375 9.609375 -6.625q3.0625 -1.90625 5.5625 -3.34375q2.5 -1.453125 4.984375 -2.5q2.5 -1.0625 5.1875 -1.640625q2.6875 -0.578125 6.34375 -0.578125zm-19.390625 37.453125q0.765625 0 2.578125 0.09375q1.828125 0.09375 4.125 0.1875q2.3125 0.09375 4.90625 0.1875q2.59375 0.09375 4.703125 0.09375q3.265625 0 7.96875 -0.1875q4.703125 -0.1875 7.96875 -0.375l0 -0.78125q0 -5.375 -0.671875 -10.078125q-0.671875 -4.703125 -2.5 -8.25q-1.8125 -3.546875 -4.890625 -5.5625q-3.078125 -2.03125 -7.671875 -2.03125q-8.265625 0 -12.390625 6.4375q-4.125 6.4375 -4.125 20.265625z" fill-rule="nonzero"/><path fill="#4bee8f" d="m619.92566 618.6325q3.265625 5.0 8.34375 7.78125q5.09375 2.78125 11.234375 2.78125q6.34375 0 10.5625 -2.875q4.21875 -2.875 6.90625 -7.671875q2.703125 -4.8125 3.84375 -10.859375q1.15625 -6.046875 1.15625 -12.1875q0 -6.140625 -1.4375 -11.609375q-1.4375 -5.484375 -4.421875 -9.515625q-2.96875 -4.03125 -7.484375 -6.328125q-4.515625 -2.3125 -10.65625 -2.3125q-5.1875 0 -10.28125 2.59375q-5.078125 2.59375 -7.765625 7.015625l0 43.1875zm-37.0625 -61.8125q5.578125 -0.765625 10.859375 -1.53125q5.28125 -0.78125 10.265625 -2.3125l14.015625 -4.421875l1.921875 1.15625l0 15.75l11.71875 -9.40625q4.03125 -3.265625 8.53125 -5.375q4.515625 -2.125 11.421875 -2.125q7.6875 0 14.015625 2.796875q6.34375 2.78125 10.953125 7.578125q4.609375 4.796875 7.09375 11.328125q2.5 6.53125 2.5 14.015625q0 7.109375 -2.015625 14.890625q-2.015625 7.765625 -5.28125 13.140625q-1.71875 2.875 -3.265625 5.0q-1.53125 2.109375 -3.453125 3.9375q-1.921875 1.8125 -4.421875 3.828125q-2.484375 2.015625 -5.9375 4.703125q-7.875 6.140625 -13.640625 9.3125q-5.75 3.171875 -11.328125 3.171875q-4.40625 0 -9.015625 -1.15625q-4.609375 -1.15625 -7.875 -2.109375l0 29.953125q0 3.265625 0.1875 6.046875q0.203125 2.78125 1.15625 3.9375q0.578125 0.953125 1.828125 1.4375q1.25 0.484375 3.9375 0.671875l8.4375 0.390625l0 7.09375q-3.0625 0 -6.8125 -0.09375q-3.75 -0.09375 -7.5 -0.1875q-3.734375 -0.09375 -7.1875 -0.203125q-3.453125 -0.09375 -6.140625 -0.09375q-2.6875 0 -6.921875 0.09375q-4.21875 0.109375 -8.25 0.296875q-4.796875 0.1875 -9.796875 0.1875l0 -7.09375l6.53125 -0.390625q4.609375 -0.1875 5.765625 -2.109375q0.578125 -0.765625 0.953125 -2.890625q0.390625 -2.109375 0.390625 -6.90625l0 -93.109375q0 -5.578125 -0.390625 -7.59375q-0.375 -2.015625 -1.34375 -2.96875q-0.375 -0.390625 -0.953125 -0.671875q-0.578125 -0.296875 -2.6875 -0.484375l-8.265625 -0.578125l0 -6.90625z" fill-rule="nonzero"/><path fill="#f2f2f2" d="m736.847 519.57q-1.34375 6.53125 -1.828125 13.546875q-0.46875 7.0 -0.46875 11.796875l0 11.90625l21.890625 -1.15625l-1.546875 12.484375l-20.34375 0l0 45.5q0 7.109375 2.484375 9.890625q2.5 2.78125 9.421875 2.78125q2.6875 0 4.5 -0.578125q1.828125 -0.578125 4.328125 -1.921875l1.53125 3.65625l-9.40625 11.328125q-1.53125 1.71875 -4.703125 2.578125q-3.171875 0.875 -7.0 0.875q-13.640625 0 -19.109375 -6.046875q-5.46875 -6.046875 -5.46875 -18.53125l0 -49.53125l-12.296875 0.765625l0 -4.21875l12.671875 -8.265625l0 -11.328125q0 -2.875 -0.09375 -6.046875q-0.09375 -3.171875 -0.28125 -5.859375q-0.203125 -3.0625 -0.390625 -5.953125q6.34375 -2.296875 12.578125 -4.890625q6.234375 -2.59375 10.84375 -4.703125l2.6875 1.921875zm63.560974 30.140625l0 51.84375q0 5.1875 0.578125 9.40625q0.578125 4.21875 2.296875 7.390625q1.734375 3.171875 4.703125 4.90625q2.984375 1.71875 7.96875 1.71875q6.53125 0 12.09375 -5.0q2.6875 -2.296875 4.21875 -5.078125q1.546875 -2.78125 1.546875 -6.8125l0 -32.0625q0 -5.578125 -0.390625 -7.59375q-0.375 -2.015625 -1.34375 -2.96875q-0.375 -0.390625 -0.953125 -0.671875q-0.578125 -0.296875 -2.6875 -0.484375l-8.265625 -0.578125l0 -6.90625q5.578125 -0.765625 10.953125 -1.53125q5.375 -0.78125 10.75 -2.5l13.4375 -4.234375l1.921875 1.15625l0 71.046875q0 4.21875 0.375 6.328125q0.390625 2.109375 0.96875 2.875q1.15625 1.921875 5.953125 2.125l5.953125 0.375l0 7.109375q-5.765625 -0.1875 -11.234375 -0.390625q-5.46875 -0.1875 -9.890625 -0.1875q-2.6875 0 -6.8125 0.1875q-4.125 0.203125 -9.703125 0.390625l0.96875 -15.9375l-14.59375 14.203125q-4.796875 4.421875 -12.484375 4.421875q-15.734375 0 -22.75 -8.25q-7.0 -8.265625 -7.0 -21.703125l0 -36.28125q0 -5.578125 -0.390625 -7.59375q-0.390625 -2.015625 -1.34375 -2.96875q-0.390625 -0.390625 -0.96875 -0.671875q-0.5625 -0.296875 -2.671875 -0.484375l-8.265625 -0.578125l0 -6.90625q5.578125 -0.765625 10.953125 -1.53125q5.375 -0.78125 10.75 -2.5l13.4375 -4.234375l1.921875 1.15625zm124.608826 -1.15625q6.53125 0 12.375 1.546875q5.859375 1.53125 10.078125 4.890625q4.234375 3.359375 6.71875 8.453125q2.5 5.078125 2.5 12.1875q0 1.921875 -0.09375 4.90625q-0.09375 2.96875 -0.1875 6.234375q-0.09375 3.265625 -0.203125 6.8125q-0.09375 3.546875 -0.09375 6.625q0 2.6875 0 5.0q0 2.296875 0.09375 4.890625q0.109375 2.59375 0.203125 5.859375q0.09375 3.25 0.28125 7.859375q0.203125 3.265625 1.0625 5.484375q0.859375 2.203125 4.125 2.578125l5.765625 0.578125l0 7.109375q-4.234375 -0.1875 -8.453125 -0.390625q-4.21875 -0.1875 -8.453125 -0.1875q-3.640625 0 -8.25 0.1875q-4.609375 0.203125 -9.21875 0.390625l-0.953125 -1.53125l0.953125 -11.90625l-17.09375 13.25q-2.109375 1.71875 -4.421875 2.296875q-2.296875 0.578125 -6.90625 0.578125q-10.9375 0 -16.125 -6.625q-5.171875 -6.625 -5.171875 -16.796875q0 -6.140625 1.8125 -11.03125q1.828125 -4.90625 4.90625 -7.59375q3.640625 -3.265625 9.59375 -5.859375q5.953125 -2.59375 16.515625 -4.703125l16.890625 -3.453125q0 -10.375 -4.703125 -16.515625q-4.703125 -6.140625 -15.078125 -6.140625q-1.53125 0 -3.359375 0.1875q-1.8125 0.1875 -3.453125 0.578125q-1.625 0.390625 -2.78125 0.875q-1.15625 0.46875 -1.34375 1.046875l-4.21875 9.59375l-5.765625 -1.34375l0 -13.25l10.5625 -6.328125q4.984375 -3.078125 10.640625 -4.703125q5.671875 -1.640625 11.25 -1.640625zm-18.046875 65.484375q0 5.9375 2.96875 8.734375q2.984375 2.78125 7.390625 2.78125q1.921875 0 4.21875 -0.765625q2.3125 -0.765625 4.515625 -1.921875q2.21875 -1.15625 4.125 -2.6875q1.921875 -1.546875 3.078125 -3.265625l0 -22.65625q-3.0625 0.953125 -7.78125 2.109375q-4.703125 1.15625 -8.734375 2.6875q-4.984375 2.109375 -7.390625 5.46875q-2.390625 3.359375 -2.390625 9.515625z" fill-rule="nonzero"/></g></svg>