<svg version="1.1" viewBox="0.0 0.0 960.0 720.0" fill="none" stroke="none" stroke-linecap="square" stroke-miterlimit="10" xmlns:xlink="http://www.w3.org/1999/xlink" xmlns="http://www.w3.org/2000/svg"><clipPath id="p.0"><path d="m0 0l960.0 0l0 720.0l-960.0 0l0 -720.0z" clip-rule="nonzero"/></clipPath><g clip-path="url(#p.0)"><path fill="#000000" fill-opacity="0.0" d="m0 0l960.0 0l0 720.0l-960.0 0z" fill-rule="evenodd"/><path fill="#4bee8f" d="m35.965878 647.948l332.97638 -575.9055l332.97638 575.9055z" fill-rule="evenodd"/><path fill="#f2f2f2" d="m155.37462 647.95795l273.24408 -472.6614l273.24408 472.6614z" fill-rule="evenodd"/><path fill="#74b6b5" d="m262.151 463.29654l166.50394 -288.0l166.50394 288.0z" fill-rule="evenodd"/><path fill="#000000" fill-opacity="0.0" d="m377.54675 463.296l546.48816 0l0 182.61417l-546.48816 0z" fill-rule="evenodd"/><path fill="#74b6b5" d="m419.578 535.1447q4.59375 0 9.015625 1.40625q4.421875 1.40625 7.8125 4.359375q3.390625 2.9375 5.4375 7.359375q2.046875 4.40625 2.046875 10.546875q0 1.921875 -0.0625 3.203125q-0.0625 1.28125 -0.1875 1.921875q-6.15625 1.03125 -12.296875 1.421875q-6.140625 0.375 -10.359375 0.375l-19.203125 0q0 11.265625 5.6875 18.25q5.703125 6.96875 17.484375 6.96875q4.46875 0 8.3125 -1.859375q3.84375 -1.859375 7.546875 -4.15625l1.671875 1.28125l-2.171875 3.703125q-0.390625 0.640625 -0.59375 0.90625q-0.1875 0.25 -0.5625 0.5q-0.515625 0.390625 -2.625 1.609375q-2.109375 1.203125 -5.0625 2.234375q-3.0625 1.15625 -6.140625 1.859375q-3.0625 0.703125 -6.015625 0.703125q-6.90625 0 -12.421875 -2.109375q-5.5 -2.109375 -9.28125 -5.953125q-3.765625 -3.84375 -5.75 -9.34375q-1.984375 -5.515625 -1.984375 -12.296875q0 -6.015625 0.953125 -10.171875q0.96875 -4.15625 2.3125 -6.90625q1.34375 -2.75 2.8125 -4.28125q1.46875 -1.546875 2.5 -2.4375q3.96875 -3.328125 6.78125 -4.734375q2.8125 -1.421875 6.015625 -2.703125q2.5625 -1.015625 4.546875 -1.328125q1.984375 -0.328125 3.78125 -0.328125zm-17.546875 25.46875q4.234375 0.515625 8.0625 0.640625q3.84375 0.125 8.203125 0.125q3.1875 0 7.21875 -0.0625q4.046875 -0.0625 6.984375 -0.3125q0 -4.234375 -0.765625 -8.125q-0.765625 -3.90625 -2.375 -6.90625q-1.59375 -3.015625 -4.21875 -4.8125q-2.625 -1.796875 -6.34375 -1.796875q-3.0625 0 -6.078125 1.09375q-3.0 1.09375 -5.375 3.46875q-2.359375 2.359375 -3.84375 6.140625q-1.46875 3.765625 -1.46875 9.140625l0 1.40625zm69.89014 21.0q0 3.96875 0.1875 5.828125q0.203125 1.84375 0.703125 2.484375q0.90625 1.15625 5.125 1.40625l6.65625 0.390625l0 3.84375q-1.921875 0 -4.359375 -0.078125q-2.421875 -0.0625 -4.921875 -0.125q-2.5 -0.0625 -4.796875 -0.125q-2.296875 -0.0625 -3.96875 -0.0625q-1.796875 0 -3.96875 0.0625q-2.171875 0.0625 -4.359375 0.125q-2.171875 0.0625 -4.15625 0.125q-1.984375 0.078125 -3.515625 0.078125l0 -3.84375l5.765625 -0.390625q1.28125 -0.125 2.421875 -0.375q1.15625 -0.265625 1.671875 -1.15625q0.640625 -1.03125 0.703125 -3.578125q0.0625 -2.5625 0.0625 -4.484375l0 -29.1875q0 -6.015625 -1.03125 -7.296875q-0.890625 -1.28125 -4.34375 -1.28125l-5.0 0l0 -3.578125q5.765625 -0.640625 11.015625 -2.171875q5.25 -1.546875 8.953125 -3.078125l1.15625 0.515625l0 12.921875l0.25 0l6.921875 -8.1875q2.5625 -2.953125 5.5 -4.09375q2.953125 -1.15625 5.25 -1.15625q1.40625 0 3.1875 0.390625q1.796875 0.375 2.703125 1.015625l-1.15625 15.359375l-2.6875 0q-1.015625 -2.296875 -3.140625 -4.09375q-2.109375 -1.796875 -5.5625 -1.796875q-2.171875 0 -4.15625 1.09375q-1.984375 1.09375 -3.390625 2.625q-1.40625 1.65625 -2.5625 4.28125q-1.15625 2.625 -1.15625 6.078125l0 21.515625zm64.1225 -46.46875q4.75 0 8.390625 1.21875q3.640625 1.21875 6.84375 3.265625q-0.765625 2.9375 -1.28125 7.109375q-0.5 4.15625 -0.5 8.625l-3.59375 0l-0.890625 -7.796875q-1.03125 -2.1875 -5.5 -3.96875q-1.796875 -0.78125 -3.984375 -1.28125q-2.171875 -0.515625 -3.953125 -0.515625q-3.453125 0 -6.78125 0.96875q-3.328125 0.953125 -5.953125 3.328125q-2.625 2.359375 -4.234375 6.390625q-1.59375 4.03125 -1.59375 10.171875q0 7.046875 1.78125 12.359375q1.796875 5.3125 5.0 8.890625q3.203125 3.578125 7.609375 5.375q4.421875 1.796875 9.546875 1.796875q3.203125 0 6.71875 -1.015625q3.515625 -1.03125 6.328125 -2.703125l1.28125 1.921875l-2.6875 4.09375q-0.515625 0.640625 -2.5625 1.546875q-1.015625 0.5 -5.109375 1.65625q-4.09375 1.15625 -10.109375 1.15625q-5.890625 0 -11.140625 -1.984375q-5.25 -1.984375 -9.21875 -5.75q-3.96875 -3.78125 -6.34375 -9.28125q-2.359375 -5.515625 -2.359375 -12.5625q0 -7.421875 3.0625 -14.078125q3.078125 -6.65625 9.21875 -10.75q12.546875 -8.1875 22.015625 -8.1875zm52.23828 0q4.59375 0 9.015625 1.40625q4.421875 1.40625 7.8125 4.359375q3.390625 2.9375 5.4375 7.359375q2.046875 4.40625 2.046875 10.546875q0 1.921875 -0.0625 3.203125q-0.0625 1.28125 -0.1875 1.921875q-6.15625 1.03125 -12.296875 1.421875q-6.140625 0.375 -10.359375 0.375l-19.203125 0q0 11.265625 5.6875 18.25q5.703125 6.96875 17.484375 6.96875q4.46875 0 8.3125 -1.859375q3.84375 -1.859375 7.546875 -4.15625l1.671875 1.28125l-2.171875 3.703125q-0.390625 0.640625 -0.59375 0.90625q-0.1875 0.25 -0.5625 0.5q-0.515625 0.390625 -2.625 1.609375q-2.109375 1.203125 -5.0625 2.234375q-3.0625 1.15625 -6.140625 1.859375q-3.0625 0.703125 -6.015625 0.703125q-6.90625 0 -12.421875 -2.109375q-5.5 -2.109375 -9.28125 -5.953125q-3.765625 -3.84375 -5.75 -9.34375q-1.984375 -5.515625 -1.984375 -12.296875q0 -6.015625 0.953125 -10.171875q0.96875 -4.15625 2.3125 -6.90625q1.34375 -2.75 2.8125 -4.28125q1.46875 -1.546875 2.5 -2.4375q3.96875 -3.328125 6.78125 -4.734375q2.8125 -1.421875 6.015625 -2.703125q2.5625 -1.015625 4.546875 -1.328125q1.984375 -0.328125 3.78125 -0.328125zm-17.546875 25.46875q4.234375 0.515625 8.0625 0.640625q3.84375 0.125 8.203125 0.125q3.1875 0 7.21875 -0.0625q4.046875 -0.0625 6.984375 -0.3125q0 -4.234375 -0.765625 -8.125q-0.765625 -3.90625 -2.375 -6.90625q-1.59375 -3.015625 -4.21875 -4.8125q-2.625 -1.796875 -6.34375 -1.796875q-3.0625 0 -6.078125 1.09375q-3.0 1.09375 -5.375 3.46875q-2.359375 2.359375 -3.84375 6.140625q-1.46875 3.765625 -1.46875 9.140625l0 1.40625z" fill-rule="nonzero"/><path fill="#4bee8f" d="m638.96906 617.3166q0 2.3125 0.125 4.734375q0.125 2.4375 0.765625 3.46875q0.515625 0.765625 1.53125 1.015625q1.03125 0.25 2.3125 0.390625l5.890625 0.375l0 3.84375q-1.421875 0 -3.46875 -0.0625q-2.046875 -0.0625 -4.28125 -0.125q-2.234375 -0.0625 -4.421875 -0.140625q-2.171875 -0.0625 -3.828125 -0.0625q-1.796875 0 -3.984375 0.0625q-2.171875 0.078125 -4.34375 0.140625q-2.171875 0.0625 -4.15625 0.125q-1.984375 0.0625 -3.515625 0.0625l0 -3.84375l5.75 -0.375q1.28125 -0.140625 2.4375 -0.390625q1.15625 -0.25 1.65625 -1.15625q0.640625 -1.015625 0.703125 -3.578125q0.0625 -2.5625 0.0625 -4.484375l0 -64.640625q0 -3.328125 -0.25 -5.046875q-0.25 -1.734375 -0.765625 -2.375q-0.515625 -0.640625 -1.546875 -0.953125q-1.015625 -0.328125 -3.578125 -0.328125l-4.21875 0l0 -3.578125q6.140625 -0.640625 11.25 -2.171875q5.125 -1.546875 8.71875 -3.078125l1.15625 0.515625l0 12.03125l0.25 0l10.234375 -9.34375q1.40625 -1.40625 4.546875 -2.296875q3.140625 -0.90625 7.484375 -0.90625q5.125 0 9.859375 1.921875q4.734375 1.921875 8.3125 5.375q3.59375 3.453125 5.703125 8.25q2.109375 4.796875 2.109375 10.5625q0 2.5625 -0.890625 6.015625q-0.890625 3.453125 -2.8125 7.546875q-1.796875 3.71875 -3.71875 6.46875q-1.921875 2.75 -4.09375 4.15625l-14.203125 9.21875q-1.671875 1.03125 -3.984375 1.53125q-2.296875 0.515625 -4.84375 0.515625q-2.953125 0 -6.921875 -0.578125q-3.96875 -0.5625 -7.03125 -2.609375l0 23.796875zm0 -34.6875q3.703125 4.234375 8.1875 5.90625q4.484375 1.65625 9.859375 1.65625q4.09375 0 7.609375 -1.984375q3.515625 -1.984375 6.140625 -5.375q2.625 -3.40625 4.09375 -7.9375q1.484375 -4.546875 1.484375 -9.796875q0 -4.734375 -1.28125 -8.703125q-1.28125 -3.96875 -3.84375 -6.84375q-2.5625 -2.890625 -6.28125 -4.484375q-3.703125 -1.609375 -8.6875 -1.609375q-2.953125 0 -6.09375 0.90625q-3.125 0.890625 -5.6875 3.0625q-2.046875 1.671875 -3.78125 3.984375q-1.71875 2.296875 -1.71875 4.34375l0 26.875z" fill-rule="nonzero"/><path fill="#f2f2f2" d="m718.1939 517.09784q-0.515625 3.578125 -0.96875 8.578125q-0.4375 4.984375 -0.4375 11.125l0 3.328125l17.53125 -0.765625l-1.140625 6.921875l-16.390625 0l0 33.65625q0 4.09375 1.40625 6.40625q1.40625 2.296875 5.640625 2.296875q2.296875 0 4.078125 -0.703125q1.796875 -0.703125 3.46875 -1.71875l1.65625 2.171875l-6.140625 6.78125q-0.640625 0.765625 -2.953125 1.140625q-2.296875 0.390625 -5.359375 0.390625q-6.53125 0 -9.546875 -3.640625q-3.0 -3.65625 -3.0 -9.796875l0 -36.984375l-9.734375 0.5l0 -2.6875l9.984375 -4.46875l0 -10.5q0 -1.671875 -0.125 -4.359375q-0.125 -2.6875 -0.390625 -4.21875q3.328125 -1.015625 6.078125 -2.296875q2.765625 -1.28125 4.8125 -2.5625l1.53125 1.40625zm70.6499 36.21875q0 -4.09375 -0.328125 -5.875q-0.3125 -1.796875 -0.9375 -2.4375q-1.03125 -1.03125 -4.234375 -1.03125l-4.859375 0l0 -3.578125q6.015625 -0.640625 11.125 -2.109375q5.125 -1.484375 8.84375 -3.140625l1.15625 0.515625l0 46.84375q0 4.09375 0.25 5.578125q0.25 1.46875 0.890625 2.109375q0.390625 0.375 1.15625 0.703125q0.765625 0.3125 2.5625 0.4375l5.125 0.390625l0 3.84375q-0.90625 0 -2.25 -0.078125q-1.34375 -0.0625 -2.875 -0.125q-1.53125 -0.0625 -3.078125 -0.125q-1.53125 -0.0625 -2.6875 -0.0625q-2.421875 0 -5.375 0.125q-2.9375 0.125 -4.984375 0.265625q0.25 -2.828125 0.375 -5.640625q0.125 -2.8125 0.125 -6.140625l-8.5625 7.9375q-2.3125 2.171875 -5.828125 3.578125q-3.515625 1.40625 -8.515625 1.40625q-5.765625 0 -9.28125 -1.40625q-3.515625 -1.40625 -5.4375 -4.03125q-1.921875 -2.625 -2.625 -6.203125q-0.703125 -3.59375 -0.703125 -7.9375l0 -23.8125q0 -4.09375 -0.328125 -5.875q-0.3125 -1.796875 -0.953125 -2.4375q-1.015625 -1.03125 -4.21875 -1.03125l-4.875 0l0 -3.578125q6.015625 -0.640625 11.140625 -2.109375q5.125 -1.484375 8.828125 -3.140625l1.15625 0.515625l0 38.265625q0 3.84375 0.640625 6.65625q0.640625 2.8125 2.171875 4.671875q1.546875 1.859375 4.234375 2.765625q2.6875 0.890625 6.78125 0.890625q3.0625 0 6.265625 -1.46875q3.203125 -1.484375 6.015625 -4.546875q2.1875 -2.4375 3.140625 -4.671875q0.953125 -2.25 0.953125 -4.171875l0 -20.734375zm54.52777 -18.171875q6.15625 0 10.046875 1.40625q3.90625 1.40625 6.21875 4.359375q2.171875 2.8125 3.328125 7.421875q1.15625 4.609375 1.15625 11.765625l0 23.296875q0 6.28125 0.890625 7.171875q0.765625 0.765625 2.8125 0.890625l4.859375 0.265625l0 3.84375q-2.171875 -0.140625 -4.921875 -0.265625q-2.75 -0.125 -4.546875 -0.125q-2.046875 0 -5.0 0.125q-2.9375 0.125 -4.984375 0.265625l0.640625 -10.890625l-15.875 11.015625q-1.015625 0.640625 -2.75 0.828125q-1.71875 0.1875 -3.125 0.1875q-6.53125 0 -11.078125 -3.828125q-4.546875 -3.84375 -4.546875 -11.65625q0 -3.84375 1.15625 -7.03125q1.15625 -3.203125 3.90625 -5.765625q2.75 -2.5625 7.21875 -4.484375q4.484375 -1.921875 11.140625 -3.0625l13.953125 -2.5625l0 -0.390625q0 -7.296875 -3.84375 -11.640625q-3.828125 -4.359375 -12.40625 -4.359375q-3.203125 0 -4.875 0.328125q-1.65625 0.3125 -2.6875 1.078125q-0.625 0.390625 -1.078125 0.96875q-0.453125 0.578125 -0.96875 1.53125q-0.5 0.953125 -1.203125 2.625q-0.703125 1.65625 -1.859375 4.34375l-3.328125 -0.890625l0 -8.3125l6.78125 -4.109375q3.328125 -2.046875 7.09375 -3.1875q3.78125 -1.15625 7.875 -1.15625zm-15.859375 43.78125q0 4.859375 3.0625 7.671875q3.078125 2.8125 6.921875 2.8125q2.171875 0 4.46875 -1.015625q2.3125 -1.03125 5.0 -2.8125q2.9375 -2.046875 4.53125 -3.578125q1.609375 -1.546875 2.375 -2.703125l0 -16.890625q-7.421875 1.015625 -13.125 2.5625q-5.6875 1.53125 -8.25 3.578125q-2.5625 1.921875 -3.78125 4.8125q-1.203125 2.875 -1.203125 5.5625z" fill-rule="nonzero"/></g></svg>