<?xml version="1.0" standalone="no"?>
<!DOCTYPE svg PUBLIC "-//W3C//DTD SVG 20010904//EN"
 "http://www.w3.org/TR/2001/REC-SVG-20010904/DTD/svg10.dtd">
<svg version="1.0" xmlns="http://www.w3.org/2000/svg"
 width="700.000000pt" height="700.000000pt" viewBox="0 0 700.000000 700.000000"
 preserveAspectRatio="xMidYMid meet">
<metadata>
Created by potrace 1.11, written by Peter Selinger 2001-2013
</metadata>
<g transform="translate(0.000000,700.000000) scale(0.100000,-0.100000)"
fill="#000000" stroke="none">
<path d="M3255 6809 c-104 -15 -233 -44 -340 -78 -16 -5 -64 -23 -105 -41
-465 -201 -817 -572 -988 -1041 -87 -240 -120 -485 -99 -754 4 -49 9 -100 11
-111 2 -12 7 -39 10 -60 4 -22 9 -47 12 -56 3 -9 6 -25 8 -35 24 -121 113
-352 176 -454 16 -27 30 -52 30 -55 0 -5 21 -36 93 -136 l49 -68 -77 -132
c-43 -73 -88 -152 -101 -175 -36 -64 -188 -325 -205 -351 -9 -15 -11 -25 -4
-30 10 -6 26 -32 83 -132 10 -19 60 -105 109 -190 146 -252 236 -407 312 -540
39 -69 76 -132 81 -140 17 -28 102 -175 128 -220 55 -98 396 -687 411 -710 8
-14 27 -46 41 -71 65 -120 606 -1049 610 -1049 3 0 21 28 41 63 59 103 262
454 333 576 36 62 66 116 66 118 0 3 8 17 19 31 10 15 31 50 46 77 15 28 58
102 94 165 117 200 258 443 287 495 15 28 55 97 89 155 34 58 80 136 101 173
21 38 47 82 57 99 9 16 68 118 131 226 404 702 501 868 510 874 8 5 8 13 0 25
-6 10 -53 90 -103 178 -51 88 -97 167 -102 175 -9 15 -124 214 -160 278 -23
39 -23 37 -5 55 35 35 145 212 197 317 277 560 237 1224 -104 1753 -58 89 -62
94 -148 196 -219 259 -529 457 -864 551 -228 64 -504 82 -730 49z"/>
</g>
</svg>
