<?xml version="1.0" standalone="no"?>
<!DOCTYPE svg PUBLIC "-//W3C//DTD SVG 20010904//EN"
 "http://www.w3.org/TR/2001/REC-SVG-20010904/DTD/svg10.dtd">
<svg version="1.0" xmlns="http://www.w3.org/2000/svg"
 width="1080.000000pt" height="1080.000000pt" viewBox="0 0 1080.000000 1080.000000"
 preserveAspectRatio="xMidYMid meet">
<metadata>
Created by potrace 1.11, written by Peter Selinger 2001-2013
</metadata>
<g transform="translate(0.000000,1080.000000) scale(0.100000,-0.100000)"
fill="#000000" stroke="none">
<path d="M5359 9757 c-20 -34 -49 -84 -64 -112 -15 -27 -36 -62 -46 -77 -11
-14 -19 -28 -19 -31 0 -2 -30 -56 -66 -118 -37 -63 -78 -134 -92 -159 -14 -25
-36 -62 -49 -82 -12 -21 -23 -42 -23 -48 0 -5 -4 -10 -10 -10 -5 0 -10 -4 -10
-9 0 -6 -39 -76 -86 -158 -48 -81 -100 -173 -117 -203 -16 -30 -36 -62 -43
-71 -8 -8 -14 -19 -14 -22 0 -4 -18 -36 -40 -72 -22 -36 -40 -67 -40 -69 0 -2
-52 -92 -115 -200 -63 -108 -125 -215 -138 -239 -13 -23 -98 -170 -189 -327
-270 -465 -354 -612 -383 -665 -15 -28 -34 -57 -41 -66 -8 -8 -14 -18 -14 -21
0 -3 -55 -99 -121 -214 -67 -115 -133 -229 -147 -254 -14 -25 -98 -171 -187
-325 -90 -154 -171 -294 -181 -312 -59 -101 -193 -333 -215 -372 -205 -357
-283 -488 -297 -499 -19 -14 -18 -18 7 -47 14 -16 133 -217 231 -390 23 -41
149 -256 160 -275 5 -8 66 -114 136 -235 70 -121 135 -235 145 -252 11 -18 28
-49 39 -68 47 -82 60 -105 115 -200 32 -55 80 -138 108 -185 27 -47 60 -103
72 -125 31 -58 49 -88 61 -105 6 -8 25 -40 41 -70 16 -30 42 -74 56 -97 15
-24 27 -45 27 -48 0 -3 11 -22 23 -43 13 -20 35 -57 49 -82 31 -55 223 -386
595 -1030 154 -267 290 -501 301 -520 11 -19 93 -161 182 -315 89 -154 171
-296 182 -315 118 -210 253 -440 258 -440 4 1 51 80 145 249 12 20 38 65 59
101 21 36 48 81 59 100 10 19 94 163 185 320 91 157 176 305 190 330 14 25 35
61 47 80 12 19 25 42 29 50 4 8 12 24 19 35 14 24 96 166 125 215 10 19 83
145 161 279 77 134 141 248 141 253 0 4 4 8 9 8 5 0 11 8 14 18 6 17 18 38 94
167 22 39 51 88 64 111 13 22 70 121 127 220 57 98 108 186 113 194 8 13 103
177 159 275 64 112 368 638 650 1125 184 316 345 596 359 622 14 26 31 48 37
48 15 0 13 32 -3 45 -6 6 -62 98 -124 205 -62 107 -172 298 -245 424 l-133
229 52 45 c299 261 515 605 614 977 23 89 27 105 39 175 30 175 35 449 10 575
-2 11 -7 45 -11 75 -19 145 -90 362 -175 535 -49 100 -148 266 -169 285 -4 3
-26 32 -50 64 -67 90 -234 253 -348 339 -56 42 -104 77 -107 77 -2 0 -28 16
-58 36 -168 112 -510 236 -717 260 -31 3 -60 9 -65 11 -4 3 -83 7 -175 8 -153
2 -262 -4 -351 -19 -19 -4 -51 -9 -70 -13 -81 -13 -203 -47 -280 -76 l-65 -25
-175 304 c-96 167 -177 304 -180 304 -3 0 -21 -28 -41 -63z"/>
</g>
</svg>
